<svg width="680" height="536" viewBox="0 0 680 536" xmlns="http://www.w3.org/2000/svg" font-family="Helvetica, Arial, sans-serif" role="img">
<title>Content generation and publishing pipeline</title>
<desc>Flowchart showing the LeadQualify content agent pipeline from scheduled trigger through competitor research, content generation, calendaring, image sourcing, and publishing to Instagram, LinkedIn, and blog.</desc>
<defs>
<marker id="arrow" viewBox="0 0 10 10" refX="8" refY="5" markerWidth="6" markerHeight="6" orient="auto-start-reverse"><path d="M2 1L8 5L2 9" fill="none" stroke="#5f5e5a" stroke-width="1.5" stroke-linecap="round" stroke-linejoin="round"/></marker>
</defs>

<rect width="680" height="536" fill="#ffffff"/>

<g>
<rect x="240" y="40" width="200" height="56" rx="8" fill="#F1EFE8" stroke="#888780" stroke-width="1"/>
<text x="340" y="60" font-size="14" font-weight="600" text-anchor="middle" dominant-baseline="central" fill="#2C2C2A">Scheduled trigger</text>
<text x="340" y="78" font-size="12" text-anchor="middle" dominant-baseline="central" fill="#5F5E5A">n8n cron job</text>
</g>
<line x1="340" y1="96" x2="340" y2="130" stroke="#5f5e5a" stroke-width="1" marker-end="url(#arrow)"/>

<g>
<rect x="190" y="130" width="300" height="56" rx="8" fill="#EEEDFE" stroke="#7F77DD" stroke-width="1"/>
<text x="340" y="150" font-size="14" font-weight="600" text-anchor="middle" dominant-baseline="central" fill="#26215C">Competitor research</text>
<text x="340" y="168" font-size="12" text-anchor="middle" dominant-baseline="central" fill="#534AB7">Apollo, Clay, Warmly</text>
</g>
<line x1="340" y1="186" x2="340" y2="220" stroke="#5f5e5a" stroke-width="1" marker-end="url(#arrow)"/>

<g>
<rect x="200" y="220" width="280" height="56" rx="8" fill="#EEEDFE" stroke="#7F77DD" stroke-width="1"/>
<text x="340" y="240" font-size="14" font-weight="600" text-anchor="middle" dominant-baseline="central" fill="#26215C">Generate content</text>
<text x="340" y="258" font-size="12" text-anchor="middle" dominant-baseline="central" fill="#534AB7">Gemini LLM, structured JSON</text>
</g>
<line x1="340" y1="276" x2="340" y2="310" stroke="#5f5e5a" stroke-width="1" marker-end="url(#arrow)"/>

<g>
<rect x="150" y="310" width="190" height="56" rx="8" fill="#E1F5EE" stroke="#5DCAA5" stroke-width="1"/>
<text x="245" y="330" font-size="14" font-weight="600" text-anchor="middle" dominant-baseline="central" fill="#04342C">Content calendar</text>
<text x="245" y="348" font-size="12" text-anchor="middle" dominant-baseline="central" fill="#0F6E56">Rolling schedule</text>
</g>
<g>
<rect x="360" y="310" width="190" height="56" rx="8" fill="#E1F5EE" stroke="#5DCAA5" stroke-width="1"/>
<text x="455" y="330" font-size="14" font-weight="600" text-anchor="middle" dominant-baseline="central" fill="#04342C">Source images</text>
<text x="455" y="348" font-size="12" text-anchor="middle" dominant-baseline="central" fill="#0F6E56">Free stock API</text>
</g>

<line x1="245" y1="366" x2="245" y2="396" stroke="#888780" stroke-width="1"/>
<line x1="455" y1="366" x2="455" y2="396" stroke="#888780" stroke-width="1"/>
<line x1="245" y1="396" x2="455" y2="396" stroke="#888780" stroke-width="1"/>
<line x1="340" y1="396" x2="340" y2="420" stroke="#5f5e5a" stroke-width="1" marker-end="url(#arrow)"/>
<line x1="130" y1="420" x2="550" y2="420" stroke="#888780" stroke-width="1"/>
<line x1="130" y1="420" x2="130" y2="440" stroke="#5f5e5a" stroke-width="1" marker-end="url(#arrow)"/>
<line x1="340" y1="420" x2="340" y2="440" stroke="#5f5e5a" stroke-width="1" marker-end="url(#arrow)"/>
<line x1="550" y1="420" x2="550" y2="440" stroke="#5f5e5a" stroke-width="1" marker-end="url(#arrow)"/>

<g>
<rect x="40" y="440" width="180" height="56" rx="8" fill="#FAECE7" stroke="#F0997B" stroke-width="1"/>
<text x="130" y="460" font-size="14" font-weight="600" text-anchor="middle" dominant-baseline="central" fill="#4A1B0C">Instagram</text>
<text x="130" y="478" font-size="12" text-anchor="middle" dominant-baseline="central" fill="#993C1D">Meta Graph API</text>
</g>
<g>
<rect x="250" y="440" width="180" height="56" rx="8" fill="#FAECE7" stroke="#F0997B" stroke-width="1"/>
<text x="340" y="460" font-size="14" font-weight="600" text-anchor="middle" dominant-baseline="central" fill="#4A1B0C">LinkedIn</text>
<text x="340" y="478" font-size="12" text-anchor="middle" dominant-baseline="central" fill="#993C1D">LinkedIn API</text>
</g>
<g>
<rect x="460" y="440" width="180" height="56" rx="8" fill="#FAECE7" stroke="#F0997B" stroke-width="1"/>
<text x="550" y="460" font-size="14" font-weight="600" text-anchor="middle" dominant-baseline="central" fill="#4A1B0C">Blog</text>
<text x="550" y="478" font-size="12" text-anchor="middle" dominant-baseline="central" fill="#993C1D">dev.to API</text>
</g>
</svg>
